%TF.GenerationSoftware,KiCad,Pcbnew,10.0.4*%
%TF.CreationDate,2026-08-02T19:40:54-05:00*%
%TF.ProjectId,pcb_design,7063625f-6465-4736-9967-6e2e6b696361,rev?*%
%TF.SameCoordinates,Original*%
%TF.FileFunction,Legend,Top*%
%TF.FilePolarity,Positive*%
%FSLAX46Y46*%
G04 Gerber Fmt 4.6, Leading zero omitted, Abs format (unit mm)*
G04 Created by KiCad (PCBNEW 10.0.4) date 2026-08-02 19:40:54*
%MOMM*%
%LPD*%
G01*
G04 APERTURE LIST*
%ADD10C,0.150000*%
%ADD11C,0.120000*%
%ADD12C,0.100000*%
%ADD13C,0.060000*%
G04 APERTURE END LIST*
D10*
X148858333Y-105254819D02*
X148525000Y-104778628D01*
X148286905Y-105254819D02*
X148286905Y-104254819D01*
X148286905Y-104254819D02*
X148667857Y-104254819D01*
X148667857Y-104254819D02*
X148763095Y-104302438D01*
X148763095Y-104302438D02*
X148810714Y-104350057D01*
X148810714Y-104350057D02*
X148858333Y-104445295D01*
X148858333Y-104445295D02*
X148858333Y-104588152D01*
X148858333Y-104588152D02*
X148810714Y-104683390D01*
X148810714Y-104683390D02*
X148763095Y-104731009D01*
X148763095Y-104731009D02*
X148667857Y-104778628D01*
X148667857Y-104778628D02*
X148286905Y-104778628D01*
X149191667Y-104254819D02*
X149810714Y-104254819D01*
X149810714Y-104254819D02*
X149477381Y-104635771D01*
X149477381Y-104635771D02*
X149620238Y-104635771D01*
X149620238Y-104635771D02*
X149715476Y-104683390D01*
X149715476Y-104683390D02*
X149763095Y-104731009D01*
X149763095Y-104731009D02*
X149810714Y-104826247D01*
X149810714Y-104826247D02*
X149810714Y-105064342D01*
X149810714Y-105064342D02*
X149763095Y-105159580D01*
X149763095Y-105159580D02*
X149715476Y-105207200D01*
X149715476Y-105207200D02*
X149620238Y-105254819D01*
X149620238Y-105254819D02*
X149334524Y-105254819D01*
X149334524Y-105254819D02*
X149239286Y-105207200D01*
X149239286Y-105207200D02*
X149191667Y-105159580D01*
X164438095Y-115179819D02*
X164438095Y-115989342D01*
X164438095Y-115989342D02*
X164485714Y-116084580D01*
X164485714Y-116084580D02*
X164533333Y-116132200D01*
X164533333Y-116132200D02*
X164628571Y-116179819D01*
X164628571Y-116179819D02*
X164819047Y-116179819D01*
X164819047Y-116179819D02*
X164914285Y-116132200D01*
X164914285Y-116132200D02*
X164961904Y-116084580D01*
X164961904Y-116084580D02*
X165009523Y-115989342D01*
X165009523Y-115989342D02*
X165009523Y-115179819D01*
X165914285Y-115513152D02*
X165914285Y-116179819D01*
X165676190Y-115132200D02*
X165438095Y-115846485D01*
X165438095Y-115846485D02*
X166057142Y-115846485D01*
X148858333Y-108304819D02*
X148525000Y-107828628D01*
X148286905Y-108304819D02*
X148286905Y-107304819D01*
X148286905Y-107304819D02*
X148667857Y-107304819D01*
X148667857Y-107304819D02*
X148763095Y-107352438D01*
X148763095Y-107352438D02*
X148810714Y-107400057D01*
X148810714Y-107400057D02*
X148858333Y-107495295D01*
X148858333Y-107495295D02*
X148858333Y-107638152D01*
X148858333Y-107638152D02*
X148810714Y-107733390D01*
X148810714Y-107733390D02*
X148763095Y-107781009D01*
X148763095Y-107781009D02*
X148667857Y-107828628D01*
X148667857Y-107828628D02*
X148286905Y-107828628D01*
X149715476Y-107638152D02*
X149715476Y-108304819D01*
X149477381Y-107257200D02*
X149239286Y-107971485D01*
X149239286Y-107971485D02*
X149858333Y-107971485D01*
X167207142Y-103349580D02*
X167159523Y-103397200D01*
X167159523Y-103397200D02*
X167016666Y-103444819D01*
X167016666Y-103444819D02*
X166921428Y-103444819D01*
X166921428Y-103444819D02*
X166778571Y-103397200D01*
X166778571Y-103397200D02*
X166683333Y-103301961D01*
X166683333Y-103301961D02*
X166635714Y-103206723D01*
X166635714Y-103206723D02*
X166588095Y-103016247D01*
X166588095Y-103016247D02*
X166588095Y-102873390D01*
X166588095Y-102873390D02*
X166635714Y-102682914D01*
X166635714Y-102682914D02*
X166683333Y-102587676D01*
X166683333Y-102587676D02*
X166778571Y-102492438D01*
X166778571Y-102492438D02*
X166921428Y-102444819D01*
X166921428Y-102444819D02*
X167016666Y-102444819D01*
X167016666Y-102444819D02*
X167159523Y-102492438D01*
X167159523Y-102492438D02*
X167207142Y-102540057D01*
X168159523Y-103444819D02*
X167588095Y-103444819D01*
X167873809Y-103444819D02*
X167873809Y-102444819D01*
X167873809Y-102444819D02*
X167778571Y-102587676D01*
X167778571Y-102587676D02*
X167683333Y-102682914D01*
X167683333Y-102682914D02*
X167588095Y-102730533D01*
X169111904Y-103444819D02*
X168540476Y-103444819D01*
X168826190Y-103444819D02*
X168826190Y-102444819D01*
X168826190Y-102444819D02*
X168730952Y-102587676D01*
X168730952Y-102587676D02*
X168635714Y-102682914D01*
X168635714Y-102682914D02*
X168540476Y-102730533D01*
X152808333Y-105304819D02*
X152475000Y-104828628D01*
X152236905Y-105304819D02*
X152236905Y-104304819D01*
X152236905Y-104304819D02*
X152617857Y-104304819D01*
X152617857Y-104304819D02*
X152713095Y-104352438D01*
X152713095Y-104352438D02*
X152760714Y-104400057D01*
X152760714Y-104400057D02*
X152808333Y-104495295D01*
X152808333Y-104495295D02*
X152808333Y-104638152D01*
X152808333Y-104638152D02*
X152760714Y-104733390D01*
X152760714Y-104733390D02*
X152713095Y-104781009D01*
X152713095Y-104781009D02*
X152617857Y-104828628D01*
X152617857Y-104828628D02*
X152236905Y-104828628D01*
X153284524Y-105304819D02*
X153475000Y-105304819D01*
X153475000Y-105304819D02*
X153570238Y-105257200D01*
X153570238Y-105257200D02*
X153617857Y-105209580D01*
X153617857Y-105209580D02*
X153713095Y-105066723D01*
X153713095Y-105066723D02*
X153760714Y-104876247D01*
X153760714Y-104876247D02*
X153760714Y-104495295D01*
X153760714Y-104495295D02*
X153713095Y-104400057D01*
X153713095Y-104400057D02*
X153665476Y-104352438D01*
X153665476Y-104352438D02*
X153570238Y-104304819D01*
X153570238Y-104304819D02*
X153379762Y-104304819D01*
X153379762Y-104304819D02*
X153284524Y-104352438D01*
X153284524Y-104352438D02*
X153236905Y-104400057D01*
X153236905Y-104400057D02*
X153189286Y-104495295D01*
X153189286Y-104495295D02*
X153189286Y-104733390D01*
X153189286Y-104733390D02*
X153236905Y-104828628D01*
X153236905Y-104828628D02*
X153284524Y-104876247D01*
X153284524Y-104876247D02*
X153379762Y-104923866D01*
X153379762Y-104923866D02*
X153570238Y-104923866D01*
X153570238Y-104923866D02*
X153665476Y-104876247D01*
X153665476Y-104876247D02*
X153713095Y-104828628D01*
X153713095Y-104828628D02*
X153760714Y-104733390D01*
X174761905Y-117954819D02*
X174761905Y-116954819D01*
X174761905Y-116954819D02*
X175000000Y-116954819D01*
X175000000Y-116954819D02*
X175142857Y-117002438D01*
X175142857Y-117002438D02*
X175238095Y-117097676D01*
X175238095Y-117097676D02*
X175285714Y-117192914D01*
X175285714Y-117192914D02*
X175333333Y-117383390D01*
X175333333Y-117383390D02*
X175333333Y-117526247D01*
X175333333Y-117526247D02*
X175285714Y-117716723D01*
X175285714Y-117716723D02*
X175238095Y-117811961D01*
X175238095Y-117811961D02*
X175142857Y-117907200D01*
X175142857Y-117907200D02*
X175000000Y-117954819D01*
X175000000Y-117954819D02*
X174761905Y-117954819D01*
X176285714Y-117954819D02*
X175714286Y-117954819D01*
X176000000Y-117954819D02*
X176000000Y-116954819D01*
X176000000Y-116954819D02*
X175904762Y-117097676D01*
X175904762Y-117097676D02*
X175809524Y-117192914D01*
X175809524Y-117192914D02*
X175714286Y-117240533D01*
X157498333Y-105084580D02*
X157450714Y-105132200D01*
X157450714Y-105132200D02*
X157307857Y-105179819D01*
X157307857Y-105179819D02*
X157212619Y-105179819D01*
X157212619Y-105179819D02*
X157069762Y-105132200D01*
X157069762Y-105132200D02*
X156974524Y-105036961D01*
X156974524Y-105036961D02*
X156926905Y-104941723D01*
X156926905Y-104941723D02*
X156879286Y-104751247D01*
X156879286Y-104751247D02*
X156879286Y-104608390D01*
X156879286Y-104608390D02*
X156926905Y-104417914D01*
X156926905Y-104417914D02*
X156974524Y-104322676D01*
X156974524Y-104322676D02*
X157069762Y-104227438D01*
X157069762Y-104227438D02*
X157212619Y-104179819D01*
X157212619Y-104179819D02*
X157307857Y-104179819D01*
X157307857Y-104179819D02*
X157450714Y-104227438D01*
X157450714Y-104227438D02*
X157498333Y-104275057D01*
X157831667Y-104179819D02*
X158450714Y-104179819D01*
X158450714Y-104179819D02*
X158117381Y-104560771D01*
X158117381Y-104560771D02*
X158260238Y-104560771D01*
X158260238Y-104560771D02*
X158355476Y-104608390D01*
X158355476Y-104608390D02*
X158403095Y-104656009D01*
X158403095Y-104656009D02*
X158450714Y-104751247D01*
X158450714Y-104751247D02*
X158450714Y-104989342D01*
X158450714Y-104989342D02*
X158403095Y-105084580D01*
X158403095Y-105084580D02*
X158355476Y-105132200D01*
X158355476Y-105132200D02*
X158260238Y-105179819D01*
X158260238Y-105179819D02*
X157974524Y-105179819D01*
X157974524Y-105179819D02*
X157879286Y-105132200D01*
X157879286Y-105132200D02*
X157831667Y-105084580D01*
X165518333Y-105524819D02*
X165185000Y-105048628D01*
X164946905Y-105524819D02*
X164946905Y-104524819D01*
X164946905Y-104524819D02*
X165327857Y-104524819D01*
X165327857Y-104524819D02*
X165423095Y-104572438D01*
X165423095Y-104572438D02*
X165470714Y-104620057D01*
X165470714Y-104620057D02*
X165518333Y-104715295D01*
X165518333Y-104715295D02*
X165518333Y-104858152D01*
X165518333Y-104858152D02*
X165470714Y-104953390D01*
X165470714Y-104953390D02*
X165423095Y-105001009D01*
X165423095Y-105001009D02*
X165327857Y-105048628D01*
X165327857Y-105048628D02*
X164946905Y-105048628D01*
X165851667Y-104524819D02*
X166518333Y-104524819D01*
X166518333Y-104524819D02*
X166089762Y-105524819D01*
X152407142Y-108254819D02*
X152073809Y-107778628D01*
X151835714Y-108254819D02*
X151835714Y-107254819D01*
X151835714Y-107254819D02*
X152216666Y-107254819D01*
X152216666Y-107254819D02*
X152311904Y-107302438D01*
X152311904Y-107302438D02*
X152359523Y-107350057D01*
X152359523Y-107350057D02*
X152407142Y-107445295D01*
X152407142Y-107445295D02*
X152407142Y-107588152D01*
X152407142Y-107588152D02*
X152359523Y-107683390D01*
X152359523Y-107683390D02*
X152311904Y-107731009D01*
X152311904Y-107731009D02*
X152216666Y-107778628D01*
X152216666Y-107778628D02*
X151835714Y-107778628D01*
X153359523Y-108254819D02*
X152788095Y-108254819D01*
X153073809Y-108254819D02*
X153073809Y-107254819D01*
X153073809Y-107254819D02*
X152978571Y-107397676D01*
X152978571Y-107397676D02*
X152883333Y-107492914D01*
X152883333Y-107492914D02*
X152788095Y-107540533D01*
X153978571Y-107254819D02*
X154073809Y-107254819D01*
X154073809Y-107254819D02*
X154169047Y-107302438D01*
X154169047Y-107302438D02*
X154216666Y-107350057D01*
X154216666Y-107350057D02*
X154264285Y-107445295D01*
X154264285Y-107445295D02*
X154311904Y-107635771D01*
X154311904Y-107635771D02*
X154311904Y-107873866D01*
X154311904Y-107873866D02*
X154264285Y-108064342D01*
X154264285Y-108064342D02*
X154216666Y-108159580D01*
X154216666Y-108159580D02*
X154169047Y-108207200D01*
X154169047Y-108207200D02*
X154073809Y-108254819D01*
X154073809Y-108254819D02*
X153978571Y-108254819D01*
X153978571Y-108254819D02*
X153883333Y-108207200D01*
X153883333Y-108207200D02*
X153835714Y-108159580D01*
X153835714Y-108159580D02*
X153788095Y-108064342D01*
X153788095Y-108064342D02*
X153740476Y-107873866D01*
X153740476Y-107873866D02*
X153740476Y-107635771D01*
X153740476Y-107635771D02*
X153788095Y-107445295D01*
X153788095Y-107445295D02*
X153835714Y-107350057D01*
X153835714Y-107350057D02*
X153883333Y-107302438D01*
X153883333Y-107302438D02*
X153978571Y-107254819D01*
X168033333Y-89579580D02*
X167985714Y-89627200D01*
X167985714Y-89627200D02*
X167842857Y-89674819D01*
X167842857Y-89674819D02*
X167747619Y-89674819D01*
X167747619Y-89674819D02*
X167604762Y-89627200D01*
X167604762Y-89627200D02*
X167509524Y-89531961D01*
X167509524Y-89531961D02*
X167461905Y-89436723D01*
X167461905Y-89436723D02*
X167414286Y-89246247D01*
X167414286Y-89246247D02*
X167414286Y-89103390D01*
X167414286Y-89103390D02*
X167461905Y-88912914D01*
X167461905Y-88912914D02*
X167509524Y-88817676D01*
X167509524Y-88817676D02*
X167604762Y-88722438D01*
X167604762Y-88722438D02*
X167747619Y-88674819D01*
X167747619Y-88674819D02*
X167842857Y-88674819D01*
X167842857Y-88674819D02*
X167985714Y-88722438D01*
X167985714Y-88722438D02*
X168033333Y-88770057D01*
X168985714Y-89674819D02*
X168414286Y-89674819D01*
X168700000Y-89674819D02*
X168700000Y-88674819D01*
X168700000Y-88674819D02*
X168604762Y-88817676D01*
X168604762Y-88817676D02*
X168509524Y-88912914D01*
X168509524Y-88912914D02*
X168414286Y-88960533D01*
X146333333Y-112859580D02*
X146285714Y-112907200D01*
X146285714Y-112907200D02*
X146142857Y-112954819D01*
X146142857Y-112954819D02*
X146047619Y-112954819D01*
X146047619Y-112954819D02*
X145904762Y-112907200D01*
X145904762Y-112907200D02*
X145809524Y-112811961D01*
X145809524Y-112811961D02*
X145761905Y-112716723D01*
X145761905Y-112716723D02*
X145714286Y-112526247D01*
X145714286Y-112526247D02*
X145714286Y-112383390D01*
X145714286Y-112383390D02*
X145761905Y-112192914D01*
X145761905Y-112192914D02*
X145809524Y-112097676D01*
X145809524Y-112097676D02*
X145904762Y-112002438D01*
X145904762Y-112002438D02*
X146047619Y-111954819D01*
X146047619Y-111954819D02*
X146142857Y-111954819D01*
X146142857Y-111954819D02*
X146285714Y-112002438D01*
X146285714Y-112002438D02*
X146333333Y-112050057D01*
X146904762Y-112383390D02*
X146809524Y-112335771D01*
X146809524Y-112335771D02*
X146761905Y-112288152D01*
X146761905Y-112288152D02*
X146714286Y-112192914D01*
X146714286Y-112192914D02*
X146714286Y-112145295D01*
X146714286Y-112145295D02*
X146761905Y-112050057D01*
X146761905Y-112050057D02*
X146809524Y-112002438D01*
X146809524Y-112002438D02*
X146904762Y-111954819D01*
X146904762Y-111954819D02*
X147095238Y-111954819D01*
X147095238Y-111954819D02*
X147190476Y-112002438D01*
X147190476Y-112002438D02*
X147238095Y-112050057D01*
X147238095Y-112050057D02*
X147285714Y-112145295D01*
X147285714Y-112145295D02*
X147285714Y-112192914D01*
X147285714Y-112192914D02*
X147238095Y-112288152D01*
X147238095Y-112288152D02*
X147190476Y-112335771D01*
X147190476Y-112335771D02*
X147095238Y-112383390D01*
X147095238Y-112383390D02*
X146904762Y-112383390D01*
X146904762Y-112383390D02*
X146809524Y-112431009D01*
X146809524Y-112431009D02*
X146761905Y-112478628D01*
X146761905Y-112478628D02*
X146714286Y-112573866D01*
X146714286Y-112573866D02*
X146714286Y-112764342D01*
X146714286Y-112764342D02*
X146761905Y-112859580D01*
X146761905Y-112859580D02*
X146809524Y-112907200D01*
X146809524Y-112907200D02*
X146904762Y-112954819D01*
X146904762Y-112954819D02*
X147095238Y-112954819D01*
X147095238Y-112954819D02*
X147190476Y-112907200D01*
X147190476Y-112907200D02*
X147238095Y-112859580D01*
X147238095Y-112859580D02*
X147285714Y-112764342D01*
X147285714Y-112764342D02*
X147285714Y-112573866D01*
X147285714Y-112573866D02*
X147238095Y-112478628D01*
X147238095Y-112478628D02*
X147190476Y-112431009D01*
X147190476Y-112431009D02*
X147095238Y-112383390D01*
X126684819Y-92163333D02*
X127399104Y-92163333D01*
X127399104Y-92163333D02*
X127541961Y-92210952D01*
X127541961Y-92210952D02*
X127637200Y-92306190D01*
X127637200Y-92306190D02*
X127684819Y-92449047D01*
X127684819Y-92449047D02*
X127684819Y-92544285D01*
X127018152Y-91258571D02*
X127684819Y-91258571D01*
X126637200Y-91496666D02*
X127351485Y-91734761D01*
X127351485Y-91734761D02*
X127351485Y-91115714D01*
X182014761Y-89100057D02*
X181919523Y-89052438D01*
X181919523Y-89052438D02*
X181824285Y-88957200D01*
X181824285Y-88957200D02*
X181681428Y-88814342D01*
X181681428Y-88814342D02*
X181586190Y-88766723D01*
X181586190Y-88766723D02*
X181490952Y-88766723D01*
X181538571Y-89004819D02*
X181443333Y-88957200D01*
X181443333Y-88957200D02*
X181348095Y-88861961D01*
X181348095Y-88861961D02*
X181300476Y-88671485D01*
X181300476Y-88671485D02*
X181300476Y-88338152D01*
X181300476Y-88338152D02*
X181348095Y-88147676D01*
X181348095Y-88147676D02*
X181443333Y-88052438D01*
X181443333Y-88052438D02*
X181538571Y-88004819D01*
X181538571Y-88004819D02*
X181729047Y-88004819D01*
X181729047Y-88004819D02*
X181824285Y-88052438D01*
X181824285Y-88052438D02*
X181919523Y-88147676D01*
X181919523Y-88147676D02*
X181967142Y-88338152D01*
X181967142Y-88338152D02*
X181967142Y-88671485D01*
X181967142Y-88671485D02*
X181919523Y-88861961D01*
X181919523Y-88861961D02*
X181824285Y-88957200D01*
X181824285Y-88957200D02*
X181729047Y-89004819D01*
X181729047Y-89004819D02*
X181538571Y-89004819D01*
X182919523Y-89004819D02*
X182348095Y-89004819D01*
X182633809Y-89004819D02*
X182633809Y-88004819D01*
X182633809Y-88004819D02*
X182538571Y-88147676D01*
X182538571Y-88147676D02*
X182443333Y-88242914D01*
X182443333Y-88242914D02*
X182348095Y-88290533D01*
X161508333Y-112504819D02*
X161175000Y-112028628D01*
X160936905Y-112504819D02*
X160936905Y-111504819D01*
X160936905Y-111504819D02*
X161317857Y-111504819D01*
X161317857Y-111504819D02*
X161413095Y-111552438D01*
X161413095Y-111552438D02*
X161460714Y-111600057D01*
X161460714Y-111600057D02*
X161508333Y-111695295D01*
X161508333Y-111695295D02*
X161508333Y-111838152D01*
X161508333Y-111838152D02*
X161460714Y-111933390D01*
X161460714Y-111933390D02*
X161413095Y-111981009D01*
X161413095Y-111981009D02*
X161317857Y-112028628D01*
X161317857Y-112028628D02*
X160936905Y-112028628D01*
X161889286Y-111600057D02*
X161936905Y-111552438D01*
X161936905Y-111552438D02*
X162032143Y-111504819D01*
X162032143Y-111504819D02*
X162270238Y-111504819D01*
X162270238Y-111504819D02*
X162365476Y-111552438D01*
X162365476Y-111552438D02*
X162413095Y-111600057D01*
X162413095Y-111600057D02*
X162460714Y-111695295D01*
X162460714Y-111695295D02*
X162460714Y-111790533D01*
X162460714Y-111790533D02*
X162413095Y-111933390D01*
X162413095Y-111933390D02*
X161841667Y-112504819D01*
X161841667Y-112504819D02*
X162460714Y-112504819D01*
X161508333Y-105524819D02*
X161175000Y-105048628D01*
X160936905Y-105524819D02*
X160936905Y-104524819D01*
X160936905Y-104524819D02*
X161317857Y-104524819D01*
X161317857Y-104524819D02*
X161413095Y-104572438D01*
X161413095Y-104572438D02*
X161460714Y-104620057D01*
X161460714Y-104620057D02*
X161508333Y-104715295D01*
X161508333Y-104715295D02*
X161508333Y-104858152D01*
X161508333Y-104858152D02*
X161460714Y-104953390D01*
X161460714Y-104953390D02*
X161413095Y-105001009D01*
X161413095Y-105001009D02*
X161317857Y-105048628D01*
X161317857Y-105048628D02*
X160936905Y-105048628D01*
X162460714Y-105524819D02*
X161889286Y-105524819D01*
X162175000Y-105524819D02*
X162175000Y-104524819D01*
X162175000Y-104524819D02*
X162079762Y-104667676D01*
X162079762Y-104667676D02*
X161984524Y-104762914D01*
X161984524Y-104762914D02*
X161889286Y-104810533D01*
X146833333Y-116359580D02*
X146785714Y-116407200D01*
X146785714Y-116407200D02*
X146642857Y-116454819D01*
X146642857Y-116454819D02*
X146547619Y-116454819D01*
X146547619Y-116454819D02*
X146404762Y-116407200D01*
X146404762Y-116407200D02*
X146309524Y-116311961D01*
X146309524Y-116311961D02*
X146261905Y-116216723D01*
X146261905Y-116216723D02*
X146214286Y-116026247D01*
X146214286Y-116026247D02*
X146214286Y-115883390D01*
X146214286Y-115883390D02*
X146261905Y-115692914D01*
X146261905Y-115692914D02*
X146309524Y-115597676D01*
X146309524Y-115597676D02*
X146404762Y-115502438D01*
X146404762Y-115502438D02*
X146547619Y-115454819D01*
X146547619Y-115454819D02*
X146642857Y-115454819D01*
X146642857Y-115454819D02*
X146785714Y-115502438D01*
X146785714Y-115502438D02*
X146833333Y-115550057D01*
X147309524Y-116454819D02*
X147500000Y-116454819D01*
X147500000Y-116454819D02*
X147595238Y-116407200D01*
X147595238Y-116407200D02*
X147642857Y-116359580D01*
X147642857Y-116359580D02*
X147738095Y-116216723D01*
X147738095Y-116216723D02*
X147785714Y-116026247D01*
X147785714Y-116026247D02*
X147785714Y-115645295D01*
X147785714Y-115645295D02*
X147738095Y-115550057D01*
X147738095Y-115550057D02*
X147690476Y-115502438D01*
X147690476Y-115502438D02*
X147595238Y-115454819D01*
X147595238Y-115454819D02*
X147404762Y-115454819D01*
X147404762Y-115454819D02*
X147309524Y-115502438D01*
X147309524Y-115502438D02*
X147261905Y-115550057D01*
X147261905Y-115550057D02*
X147214286Y-115645295D01*
X147214286Y-115645295D02*
X147214286Y-115883390D01*
X147214286Y-115883390D02*
X147261905Y-115978628D01*
X147261905Y-115978628D02*
X147309524Y-116026247D01*
X147309524Y-116026247D02*
X147404762Y-116073866D01*
X147404762Y-116073866D02*
X147595238Y-116073866D01*
X147595238Y-116073866D02*
X147690476Y-116026247D01*
X147690476Y-116026247D02*
X147738095Y-115978628D01*
X147738095Y-115978628D02*
X147785714Y-115883390D01*
X165633333Y-112604819D02*
X165300000Y-112128628D01*
X165061905Y-112604819D02*
X165061905Y-111604819D01*
X165061905Y-111604819D02*
X165442857Y-111604819D01*
X165442857Y-111604819D02*
X165538095Y-111652438D01*
X165538095Y-111652438D02*
X165585714Y-111700057D01*
X165585714Y-111700057D02*
X165633333Y-111795295D01*
X165633333Y-111795295D02*
X165633333Y-111938152D01*
X165633333Y-111938152D02*
X165585714Y-112033390D01*
X165585714Y-112033390D02*
X165538095Y-112081009D01*
X165538095Y-112081009D02*
X165442857Y-112128628D01*
X165442857Y-112128628D02*
X165061905Y-112128628D01*
X166204762Y-112033390D02*
X166109524Y-111985771D01*
X166109524Y-111985771D02*
X166061905Y-111938152D01*
X166061905Y-111938152D02*
X166014286Y-111842914D01*
X166014286Y-111842914D02*
X166014286Y-111795295D01*
X166014286Y-111795295D02*
X166061905Y-111700057D01*
X166061905Y-111700057D02*
X166109524Y-111652438D01*
X166109524Y-111652438D02*
X166204762Y-111604819D01*
X166204762Y-111604819D02*
X166395238Y-111604819D01*
X166395238Y-111604819D02*
X166490476Y-111652438D01*
X166490476Y-111652438D02*
X166538095Y-111700057D01*
X166538095Y-111700057D02*
X166585714Y-111795295D01*
X166585714Y-111795295D02*
X166585714Y-111842914D01*
X166585714Y-111842914D02*
X166538095Y-111938152D01*
X166538095Y-111938152D02*
X166490476Y-111985771D01*
X166490476Y-111985771D02*
X166395238Y-112033390D01*
X166395238Y-112033390D02*
X166204762Y-112033390D01*
X166204762Y-112033390D02*
X166109524Y-112081009D01*
X166109524Y-112081009D02*
X166061905Y-112128628D01*
X166061905Y-112128628D02*
X166014286Y-112223866D01*
X166014286Y-112223866D02*
X166014286Y-112414342D01*
X166014286Y-112414342D02*
X166061905Y-112509580D01*
X166061905Y-112509580D02*
X166109524Y-112557200D01*
X166109524Y-112557200D02*
X166204762Y-112604819D01*
X166204762Y-112604819D02*
X166395238Y-112604819D01*
X166395238Y-112604819D02*
X166490476Y-112557200D01*
X166490476Y-112557200D02*
X166538095Y-112509580D01*
X166538095Y-112509580D02*
X166585714Y-112414342D01*
X166585714Y-112414342D02*
X166585714Y-112223866D01*
X166585714Y-112223866D02*
X166538095Y-112128628D01*
X166538095Y-112128628D02*
X166490476Y-112081009D01*
X166490476Y-112081009D02*
X166395238Y-112033390D01*
X178368095Y-100704819D02*
X178368095Y-101514342D01*
X178368095Y-101514342D02*
X178415714Y-101609580D01*
X178415714Y-101609580D02*
X178463333Y-101657200D01*
X178463333Y-101657200D02*
X178558571Y-101704819D01*
X178558571Y-101704819D02*
X178749047Y-101704819D01*
X178749047Y-101704819D02*
X178844285Y-101657200D01*
X178844285Y-101657200D02*
X178891904Y-101609580D01*
X178891904Y-101609580D02*
X178939523Y-101514342D01*
X178939523Y-101514342D02*
X178939523Y-100704819D01*
X179320476Y-100704819D02*
X179987142Y-100704819D01*
X179987142Y-100704819D02*
X179558571Y-101704819D01*
X144094819Y-100491904D02*
X144904342Y-100491904D01*
X144904342Y-100491904D02*
X144999580Y-100444285D01*
X144999580Y-100444285D02*
X145047200Y-100396666D01*
X145047200Y-100396666D02*
X145094819Y-100301428D01*
X145094819Y-100301428D02*
X145094819Y-100110952D01*
X145094819Y-100110952D02*
X145047200Y-100015714D01*
X145047200Y-100015714D02*
X144999580Y-99968095D01*
X144999580Y-99968095D02*
X144904342Y-99920476D01*
X144904342Y-99920476D02*
X144094819Y-99920476D01*
X144190057Y-99491904D02*
X144142438Y-99444285D01*
X144142438Y-99444285D02*
X144094819Y-99349047D01*
X144094819Y-99349047D02*
X144094819Y-99110952D01*
X144094819Y-99110952D02*
X144142438Y-99015714D01*
X144142438Y-99015714D02*
X144190057Y-98968095D01*
X144190057Y-98968095D02*
X144285295Y-98920476D01*
X144285295Y-98920476D02*
X144380533Y-98920476D01*
X144380533Y-98920476D02*
X144523390Y-98968095D01*
X144523390Y-98968095D02*
X145094819Y-99539523D01*
X145094819Y-99539523D02*
X145094819Y-98920476D01*
X167913333Y-92669580D02*
X167865714Y-92717200D01*
X167865714Y-92717200D02*
X167722857Y-92764819D01*
X167722857Y-92764819D02*
X167627619Y-92764819D01*
X167627619Y-92764819D02*
X167484762Y-92717200D01*
X167484762Y-92717200D02*
X167389524Y-92621961D01*
X167389524Y-92621961D02*
X167341905Y-92526723D01*
X167341905Y-92526723D02*
X167294286Y-92336247D01*
X167294286Y-92336247D02*
X167294286Y-92193390D01*
X167294286Y-92193390D02*
X167341905Y-92002914D01*
X167341905Y-92002914D02*
X167389524Y-91907676D01*
X167389524Y-91907676D02*
X167484762Y-91812438D01*
X167484762Y-91812438D02*
X167627619Y-91764819D01*
X167627619Y-91764819D02*
X167722857Y-91764819D01*
X167722857Y-91764819D02*
X167865714Y-91812438D01*
X167865714Y-91812438D02*
X167913333Y-91860057D01*
X168294286Y-91860057D02*
X168341905Y-91812438D01*
X168341905Y-91812438D02*
X168437143Y-91764819D01*
X168437143Y-91764819D02*
X168675238Y-91764819D01*
X168675238Y-91764819D02*
X168770476Y-91812438D01*
X168770476Y-91812438D02*
X168818095Y-91860057D01*
X168818095Y-91860057D02*
X168865714Y-91955295D01*
X168865714Y-91955295D02*
X168865714Y-92050533D01*
X168865714Y-92050533D02*
X168818095Y-92193390D01*
X168818095Y-92193390D02*
X168246667Y-92764819D01*
X168246667Y-92764819D02*
X168865714Y-92764819D01*
X158838095Y-116729819D02*
X158838095Y-117539342D01*
X158838095Y-117539342D02*
X158885714Y-117634580D01*
X158885714Y-117634580D02*
X158933333Y-117682200D01*
X158933333Y-117682200D02*
X159028571Y-117729819D01*
X159028571Y-117729819D02*
X159219047Y-117729819D01*
X159219047Y-117729819D02*
X159314285Y-117682200D01*
X159314285Y-117682200D02*
X159361904Y-117634580D01*
X159361904Y-117634580D02*
X159409523Y-117539342D01*
X159409523Y-117539342D02*
X159409523Y-116729819D01*
X160314285Y-116729819D02*
X160123809Y-116729819D01*
X160123809Y-116729819D02*
X160028571Y-116777438D01*
X160028571Y-116777438D02*
X159980952Y-116825057D01*
X159980952Y-116825057D02*
X159885714Y-116967914D01*
X159885714Y-116967914D02*
X159838095Y-117158390D01*
X159838095Y-117158390D02*
X159838095Y-117539342D01*
X159838095Y-117539342D02*
X159885714Y-117634580D01*
X159885714Y-117634580D02*
X159933333Y-117682200D01*
X159933333Y-117682200D02*
X160028571Y-117729819D01*
X160028571Y-117729819D02*
X160219047Y-117729819D01*
X160219047Y-117729819D02*
X160314285Y-117682200D01*
X160314285Y-117682200D02*
X160361904Y-117634580D01*
X160361904Y-117634580D02*
X160409523Y-117539342D01*
X160409523Y-117539342D02*
X160409523Y-117301247D01*
X160409523Y-117301247D02*
X160361904Y-117206009D01*
X160361904Y-117206009D02*
X160314285Y-117158390D01*
X160314285Y-117158390D02*
X160219047Y-117110771D01*
X160219047Y-117110771D02*
X160028571Y-117110771D01*
X160028571Y-117110771D02*
X159933333Y-117158390D01*
X159933333Y-117158390D02*
X159885714Y-117206009D01*
X159885714Y-117206009D02*
X159838095Y-117301247D01*
X131196666Y-98044819D02*
X131196666Y-98759104D01*
X131196666Y-98759104D02*
X131149047Y-98901961D01*
X131149047Y-98901961D02*
X131053809Y-98997200D01*
X131053809Y-98997200D02*
X130910952Y-99044819D01*
X130910952Y-99044819D02*
X130815714Y-99044819D01*
X131625238Y-98140057D02*
X131672857Y-98092438D01*
X131672857Y-98092438D02*
X131768095Y-98044819D01*
X131768095Y-98044819D02*
X132006190Y-98044819D01*
X132006190Y-98044819D02*
X132101428Y-98092438D01*
X132101428Y-98092438D02*
X132149047Y-98140057D01*
X132149047Y-98140057D02*
X132196666Y-98235295D01*
X132196666Y-98235295D02*
X132196666Y-98330533D01*
X132196666Y-98330533D02*
X132149047Y-98473390D01*
X132149047Y-98473390D02*
X131577619Y-99044819D01*
X131577619Y-99044819D02*
X132196666Y-99044819D01*
X144808333Y-108309580D02*
X144760714Y-108357200D01*
X144760714Y-108357200D02*
X144617857Y-108404819D01*
X144617857Y-108404819D02*
X144522619Y-108404819D01*
X144522619Y-108404819D02*
X144379762Y-108357200D01*
X144379762Y-108357200D02*
X144284524Y-108261961D01*
X144284524Y-108261961D02*
X144236905Y-108166723D01*
X144236905Y-108166723D02*
X144189286Y-107976247D01*
X144189286Y-107976247D02*
X144189286Y-107833390D01*
X144189286Y-107833390D02*
X144236905Y-107642914D01*
X144236905Y-107642914D02*
X144284524Y-107547676D01*
X144284524Y-107547676D02*
X144379762Y-107452438D01*
X144379762Y-107452438D02*
X144522619Y-107404819D01*
X144522619Y-107404819D02*
X144617857Y-107404819D01*
X144617857Y-107404819D02*
X144760714Y-107452438D01*
X144760714Y-107452438D02*
X144808333Y-107500057D01*
X145141667Y-107404819D02*
X145808333Y-107404819D01*
X145808333Y-107404819D02*
X145379762Y-108404819D01*
X144758333Y-105334580D02*
X144710714Y-105382200D01*
X144710714Y-105382200D02*
X144567857Y-105429819D01*
X144567857Y-105429819D02*
X144472619Y-105429819D01*
X144472619Y-105429819D02*
X144329762Y-105382200D01*
X144329762Y-105382200D02*
X144234524Y-105286961D01*
X144234524Y-105286961D02*
X144186905Y-105191723D01*
X144186905Y-105191723D02*
X144139286Y-105001247D01*
X144139286Y-105001247D02*
X144139286Y-104858390D01*
X144139286Y-104858390D02*
X144186905Y-104667914D01*
X144186905Y-104667914D02*
X144234524Y-104572676D01*
X144234524Y-104572676D02*
X144329762Y-104477438D01*
X144329762Y-104477438D02*
X144472619Y-104429819D01*
X144472619Y-104429819D02*
X144567857Y-104429819D01*
X144567857Y-104429819D02*
X144710714Y-104477438D01*
X144710714Y-104477438D02*
X144758333Y-104525057D01*
X145663095Y-104429819D02*
X145186905Y-104429819D01*
X145186905Y-104429819D02*
X145139286Y-104906009D01*
X145139286Y-104906009D02*
X145186905Y-104858390D01*
X145186905Y-104858390D02*
X145282143Y-104810771D01*
X145282143Y-104810771D02*
X145520238Y-104810771D01*
X145520238Y-104810771D02*
X145615476Y-104858390D01*
X145615476Y-104858390D02*
X145663095Y-104906009D01*
X145663095Y-104906009D02*
X145710714Y-105001247D01*
X145710714Y-105001247D02*
X145710714Y-105239342D01*
X145710714Y-105239342D02*
X145663095Y-105334580D01*
X145663095Y-105334580D02*
X145615476Y-105382200D01*
X145615476Y-105382200D02*
X145520238Y-105429819D01*
X145520238Y-105429819D02*
X145282143Y-105429819D01*
X145282143Y-105429819D02*
X145186905Y-105382200D01*
X145186905Y-105382200D02*
X145139286Y-105334580D01*
X179248095Y-99024819D02*
X179248095Y-99834342D01*
X179248095Y-99834342D02*
X179295714Y-99929580D01*
X179295714Y-99929580D02*
X179343333Y-99977200D01*
X179343333Y-99977200D02*
X179438571Y-100024819D01*
X179438571Y-100024819D02*
X179629047Y-100024819D01*
X179629047Y-100024819D02*
X179724285Y-99977200D01*
X179724285Y-99977200D02*
X179771904Y-99929580D01*
X179771904Y-99929580D02*
X179819523Y-99834342D01*
X179819523Y-99834342D02*
X179819523Y-99024819D01*
X180771904Y-99024819D02*
X180295714Y-99024819D01*
X180295714Y-99024819D02*
X180248095Y-99501009D01*
X180248095Y-99501009D02*
X180295714Y-99453390D01*
X180295714Y-99453390D02*
X180390952Y-99405771D01*
X180390952Y-99405771D02*
X180629047Y-99405771D01*
X180629047Y-99405771D02*
X180724285Y-99453390D01*
X180724285Y-99453390D02*
X180771904Y-99501009D01*
X180771904Y-99501009D02*
X180819523Y-99596247D01*
X180819523Y-99596247D02*
X180819523Y-99834342D01*
X180819523Y-99834342D02*
X180771904Y-99929580D01*
X180771904Y-99929580D02*
X180724285Y-99977200D01*
X180724285Y-99977200D02*
X180629047Y-100024819D01*
X180629047Y-100024819D02*
X180390952Y-100024819D01*
X180390952Y-100024819D02*
X180295714Y-99977200D01*
X180295714Y-99977200D02*
X180248095Y-99929580D01*
X183080057Y-97925238D02*
X183032438Y-98020476D01*
X183032438Y-98020476D02*
X182937200Y-98115714D01*
X182937200Y-98115714D02*
X182794342Y-98258571D01*
X182794342Y-98258571D02*
X182746723Y-98353809D01*
X182746723Y-98353809D02*
X182746723Y-98449047D01*
X182984819Y-98401428D02*
X182937200Y-98496666D01*
X182937200Y-98496666D02*
X182841961Y-98591904D01*
X182841961Y-98591904D02*
X182651485Y-98639523D01*
X182651485Y-98639523D02*
X182318152Y-98639523D01*
X182318152Y-98639523D02*
X182127676Y-98591904D01*
X182127676Y-98591904D02*
X182032438Y-98496666D01*
X182032438Y-98496666D02*
X181984819Y-98401428D01*
X181984819Y-98401428D02*
X181984819Y-98210952D01*
X181984819Y-98210952D02*
X182032438Y-98115714D01*
X182032438Y-98115714D02*
X182127676Y-98020476D01*
X182127676Y-98020476D02*
X182318152Y-97972857D01*
X182318152Y-97972857D02*
X182651485Y-97972857D01*
X182651485Y-97972857D02*
X182841961Y-98020476D01*
X182841961Y-98020476D02*
X182937200Y-98115714D01*
X182937200Y-98115714D02*
X182984819Y-98210952D01*
X182984819Y-98210952D02*
X182984819Y-98401428D01*
X182080057Y-97591904D02*
X182032438Y-97544285D01*
X182032438Y-97544285D02*
X181984819Y-97449047D01*
X181984819Y-97449047D02*
X181984819Y-97210952D01*
X181984819Y-97210952D02*
X182032438Y-97115714D01*
X182032438Y-97115714D02*
X182080057Y-97068095D01*
X182080057Y-97068095D02*
X182175295Y-97020476D01*
X182175295Y-97020476D02*
X182270533Y-97020476D01*
X182270533Y-97020476D02*
X182413390Y-97068095D01*
X182413390Y-97068095D02*
X182984819Y-97639523D01*
X182984819Y-97639523D02*
X182984819Y-97020476D01*
X130788095Y-75829819D02*
X130788095Y-76639342D01*
X130788095Y-76639342D02*
X130835714Y-76734580D01*
X130835714Y-76734580D02*
X130883333Y-76782200D01*
X130883333Y-76782200D02*
X130978571Y-76829819D01*
X130978571Y-76829819D02*
X131169047Y-76829819D01*
X131169047Y-76829819D02*
X131264285Y-76782200D01*
X131264285Y-76782200D02*
X131311904Y-76734580D01*
X131311904Y-76734580D02*
X131359523Y-76639342D01*
X131359523Y-76639342D02*
X131359523Y-75829819D01*
X131740476Y-75829819D02*
X132359523Y-75829819D01*
X132359523Y-75829819D02*
X132026190Y-76210771D01*
X132026190Y-76210771D02*
X132169047Y-76210771D01*
X132169047Y-76210771D02*
X132264285Y-76258390D01*
X132264285Y-76258390D02*
X132311904Y-76306009D01*
X132311904Y-76306009D02*
X132359523Y-76401247D01*
X132359523Y-76401247D02*
X132359523Y-76639342D01*
X132359523Y-76639342D02*
X132311904Y-76734580D01*
X132311904Y-76734580D02*
X132264285Y-76782200D01*
X132264285Y-76782200D02*
X132169047Y-76829819D01*
X132169047Y-76829819D02*
X131883333Y-76829819D01*
X131883333Y-76829819D02*
X131788095Y-76782200D01*
X131788095Y-76782200D02*
X131740476Y-76734580D01*
X176666667Y-75707200D02*
X176809524Y-75754819D01*
X176809524Y-75754819D02*
X177047619Y-75754819D01*
X177047619Y-75754819D02*
X177142857Y-75707200D01*
X177142857Y-75707200D02*
X177190476Y-75659580D01*
X177190476Y-75659580D02*
X177238095Y-75564342D01*
X177238095Y-75564342D02*
X177238095Y-75469104D01*
X177238095Y-75469104D02*
X177190476Y-75373866D01*
X177190476Y-75373866D02*
X177142857Y-75326247D01*
X177142857Y-75326247D02*
X177047619Y-75278628D01*
X177047619Y-75278628D02*
X176857143Y-75231009D01*
X176857143Y-75231009D02*
X176761905Y-75183390D01*
X176761905Y-75183390D02*
X176714286Y-75135771D01*
X176714286Y-75135771D02*
X176666667Y-75040533D01*
X176666667Y-75040533D02*
X176666667Y-74945295D01*
X176666667Y-74945295D02*
X176714286Y-74850057D01*
X176714286Y-74850057D02*
X176761905Y-74802438D01*
X176761905Y-74802438D02*
X176857143Y-74754819D01*
X176857143Y-74754819D02*
X177095238Y-74754819D01*
X177095238Y-74754819D02*
X177238095Y-74802438D01*
X177571429Y-74754819D02*
X177809524Y-75754819D01*
X177809524Y-75754819D02*
X178000000Y-75040533D01*
X178000000Y-75040533D02*
X178190476Y-75754819D01*
X178190476Y-75754819D02*
X178428572Y-74754819D01*
X179333333Y-75754819D02*
X178761905Y-75754819D01*
X179047619Y-75754819D02*
X179047619Y-74754819D01*
X179047619Y-74754819D02*
X178952381Y-74897676D01*
X178952381Y-74897676D02*
X178857143Y-74992914D01*
X178857143Y-74992914D02*
X178761905Y-75040533D01*
X142026666Y-118304819D02*
X142026666Y-119019104D01*
X142026666Y-119019104D02*
X141979047Y-119161961D01*
X141979047Y-119161961D02*
X141883809Y-119257200D01*
X141883809Y-119257200D02*
X141740952Y-119304819D01*
X141740952Y-119304819D02*
X141645714Y-119304819D01*
X143026666Y-119304819D02*
X142455238Y-119304819D01*
X142740952Y-119304819D02*
X142740952Y-118304819D01*
X142740952Y-118304819D02*
X142645714Y-118447676D01*
X142645714Y-118447676D02*
X142550476Y-118542914D01*
X142550476Y-118542914D02*
X142455238Y-118590533D01*
X153833333Y-112454819D02*
X153500000Y-111978628D01*
X153261905Y-112454819D02*
X153261905Y-111454819D01*
X153261905Y-111454819D02*
X153642857Y-111454819D01*
X153642857Y-111454819D02*
X153738095Y-111502438D01*
X153738095Y-111502438D02*
X153785714Y-111550057D01*
X153785714Y-111550057D02*
X153833333Y-111645295D01*
X153833333Y-111645295D02*
X153833333Y-111788152D01*
X153833333Y-111788152D02*
X153785714Y-111883390D01*
X153785714Y-111883390D02*
X153738095Y-111931009D01*
X153738095Y-111931009D02*
X153642857Y-111978628D01*
X153642857Y-111978628D02*
X153261905Y-111978628D01*
X154738095Y-111454819D02*
X154261905Y-111454819D01*
X154261905Y-111454819D02*
X154214286Y-111931009D01*
X154214286Y-111931009D02*
X154261905Y-111883390D01*
X154261905Y-111883390D02*
X154357143Y-111835771D01*
X154357143Y-111835771D02*
X154595238Y-111835771D01*
X154595238Y-111835771D02*
X154690476Y-111883390D01*
X154690476Y-111883390D02*
X154738095Y-111931009D01*
X154738095Y-111931009D02*
X154785714Y-112026247D01*
X154785714Y-112026247D02*
X154785714Y-112264342D01*
X154785714Y-112264342D02*
X154738095Y-112359580D01*
X154738095Y-112359580D02*
X154690476Y-112407200D01*
X154690476Y-112407200D02*
X154595238Y-112454819D01*
X154595238Y-112454819D02*
X154357143Y-112454819D01*
X154357143Y-112454819D02*
X154261905Y-112407200D01*
X154261905Y-112407200D02*
X154214286Y-112359580D01*
X139621905Y-106834819D02*
X139621905Y-105834819D01*
X139621905Y-105834819D02*
X139860000Y-105834819D01*
X139860000Y-105834819D02*
X140002857Y-105882438D01*
X140002857Y-105882438D02*
X140098095Y-105977676D01*
X140098095Y-105977676D02*
X140145714Y-106072914D01*
X140145714Y-106072914D02*
X140193333Y-106263390D01*
X140193333Y-106263390D02*
X140193333Y-106406247D01*
X140193333Y-106406247D02*
X140145714Y-106596723D01*
X140145714Y-106596723D02*
X140098095Y-106691961D01*
X140098095Y-106691961D02*
X140002857Y-106787200D01*
X140002857Y-106787200D02*
X139860000Y-106834819D01*
X139860000Y-106834819D02*
X139621905Y-106834819D01*
X140574286Y-105930057D02*
X140621905Y-105882438D01*
X140621905Y-105882438D02*
X140717143Y-105834819D01*
X140717143Y-105834819D02*
X140955238Y-105834819D01*
X140955238Y-105834819D02*
X141050476Y-105882438D01*
X141050476Y-105882438D02*
X141098095Y-105930057D01*
X141098095Y-105930057D02*
X141145714Y-106025295D01*
X141145714Y-106025295D02*
X141145714Y-106120533D01*
X141145714Y-106120533D02*
X141098095Y-106263390D01*
X141098095Y-106263390D02*
X140526667Y-106834819D01*
X140526667Y-106834819D02*
X141145714Y-106834819D01*
X167477142Y-98639580D02*
X167429523Y-98687200D01*
X167429523Y-98687200D02*
X167286666Y-98734819D01*
X167286666Y-98734819D02*
X167191428Y-98734819D01*
X167191428Y-98734819D02*
X167048571Y-98687200D01*
X167048571Y-98687200D02*
X166953333Y-98591961D01*
X166953333Y-98591961D02*
X166905714Y-98496723D01*
X166905714Y-98496723D02*
X166858095Y-98306247D01*
X166858095Y-98306247D02*
X166858095Y-98163390D01*
X166858095Y-98163390D02*
X166905714Y-97972914D01*
X166905714Y-97972914D02*
X166953333Y-97877676D01*
X166953333Y-97877676D02*
X167048571Y-97782438D01*
X167048571Y-97782438D02*
X167191428Y-97734819D01*
X167191428Y-97734819D02*
X167286666Y-97734819D01*
X167286666Y-97734819D02*
X167429523Y-97782438D01*
X167429523Y-97782438D02*
X167477142Y-97830057D01*
X168429523Y-98734819D02*
X167858095Y-98734819D01*
X168143809Y-98734819D02*
X168143809Y-97734819D01*
X168143809Y-97734819D02*
X168048571Y-97877676D01*
X168048571Y-97877676D02*
X167953333Y-97972914D01*
X167953333Y-97972914D02*
X167858095Y-98020533D01*
X169048571Y-97734819D02*
X169143809Y-97734819D01*
X169143809Y-97734819D02*
X169239047Y-97782438D01*
X169239047Y-97782438D02*
X169286666Y-97830057D01*
X169286666Y-97830057D02*
X169334285Y-97925295D01*
X169334285Y-97925295D02*
X169381904Y-98115771D01*
X169381904Y-98115771D02*
X169381904Y-98353866D01*
X169381904Y-98353866D02*
X169334285Y-98544342D01*
X169334285Y-98544342D02*
X169286666Y-98639580D01*
X169286666Y-98639580D02*
X169239047Y-98687200D01*
X169239047Y-98687200D02*
X169143809Y-98734819D01*
X169143809Y-98734819D02*
X169048571Y-98734819D01*
X169048571Y-98734819D02*
X168953333Y-98687200D01*
X168953333Y-98687200D02*
X168905714Y-98639580D01*
X168905714Y-98639580D02*
X168858095Y-98544342D01*
X168858095Y-98544342D02*
X168810476Y-98353866D01*
X168810476Y-98353866D02*
X168810476Y-98115771D01*
X168810476Y-98115771D02*
X168858095Y-97925295D01*
X168858095Y-97925295D02*
X168905714Y-97830057D01*
X168905714Y-97830057D02*
X168953333Y-97782438D01*
X168953333Y-97782438D02*
X169048571Y-97734819D01*
X157483333Y-108259580D02*
X157435714Y-108307200D01*
X157435714Y-108307200D02*
X157292857Y-108354819D01*
X157292857Y-108354819D02*
X157197619Y-108354819D01*
X157197619Y-108354819D02*
X157054762Y-108307200D01*
X157054762Y-108307200D02*
X156959524Y-108211961D01*
X156959524Y-108211961D02*
X156911905Y-108116723D01*
X156911905Y-108116723D02*
X156864286Y-107926247D01*
X156864286Y-107926247D02*
X156864286Y-107783390D01*
X156864286Y-107783390D02*
X156911905Y-107592914D01*
X156911905Y-107592914D02*
X156959524Y-107497676D01*
X156959524Y-107497676D02*
X157054762Y-107402438D01*
X157054762Y-107402438D02*
X157197619Y-107354819D01*
X157197619Y-107354819D02*
X157292857Y-107354819D01*
X157292857Y-107354819D02*
X157435714Y-107402438D01*
X157435714Y-107402438D02*
X157483333Y-107450057D01*
X158340476Y-107688152D02*
X158340476Y-108354819D01*
X158102381Y-107307200D02*
X157864286Y-108021485D01*
X157864286Y-108021485D02*
X158483333Y-108021485D01*
X175148095Y-86704819D02*
X175148095Y-87514342D01*
X175148095Y-87514342D02*
X175195714Y-87609580D01*
X175195714Y-87609580D02*
X175243333Y-87657200D01*
X175243333Y-87657200D02*
X175338571Y-87704819D01*
X175338571Y-87704819D02*
X175529047Y-87704819D01*
X175529047Y-87704819D02*
X175624285Y-87657200D01*
X175624285Y-87657200D02*
X175671904Y-87609580D01*
X175671904Y-87609580D02*
X175719523Y-87514342D01*
X175719523Y-87514342D02*
X175719523Y-86704819D01*
X176719523Y-87704819D02*
X176148095Y-87704819D01*
X176433809Y-87704819D02*
X176433809Y-86704819D01*
X176433809Y-86704819D02*
X176338571Y-86847676D01*
X176338571Y-86847676D02*
X176243333Y-86942914D01*
X176243333Y-86942914D02*
X176148095Y-86990533D01*
X167953333Y-95659580D02*
X167905714Y-95707200D01*
X167905714Y-95707200D02*
X167762857Y-95754819D01*
X167762857Y-95754819D02*
X167667619Y-95754819D01*
X167667619Y-95754819D02*
X167524762Y-95707200D01*
X167524762Y-95707200D02*
X167429524Y-95611961D01*
X167429524Y-95611961D02*
X167381905Y-95516723D01*
X167381905Y-95516723D02*
X167334286Y-95326247D01*
X167334286Y-95326247D02*
X167334286Y-95183390D01*
X167334286Y-95183390D02*
X167381905Y-94992914D01*
X167381905Y-94992914D02*
X167429524Y-94897676D01*
X167429524Y-94897676D02*
X167524762Y-94802438D01*
X167524762Y-94802438D02*
X167667619Y-94754819D01*
X167667619Y-94754819D02*
X167762857Y-94754819D01*
X167762857Y-94754819D02*
X167905714Y-94802438D01*
X167905714Y-94802438D02*
X167953333Y-94850057D01*
X168810476Y-94754819D02*
X168620000Y-94754819D01*
X168620000Y-94754819D02*
X168524762Y-94802438D01*
X168524762Y-94802438D02*
X168477143Y-94850057D01*
X168477143Y-94850057D02*
X168381905Y-94992914D01*
X168381905Y-94992914D02*
X168334286Y-95183390D01*
X168334286Y-95183390D02*
X168334286Y-95564342D01*
X168334286Y-95564342D02*
X168381905Y-95659580D01*
X168381905Y-95659580D02*
X168429524Y-95707200D01*
X168429524Y-95707200D02*
X168524762Y-95754819D01*
X168524762Y-95754819D02*
X168715238Y-95754819D01*
X168715238Y-95754819D02*
X168810476Y-95707200D01*
X168810476Y-95707200D02*
X168858095Y-95659580D01*
X168858095Y-95659580D02*
X168905714Y-95564342D01*
X168905714Y-95564342D02*
X168905714Y-95326247D01*
X168905714Y-95326247D02*
X168858095Y-95231009D01*
X168858095Y-95231009D02*
X168810476Y-95183390D01*
X168810476Y-95183390D02*
X168715238Y-95135771D01*
X168715238Y-95135771D02*
X168524762Y-95135771D01*
X168524762Y-95135771D02*
X168429524Y-95183390D01*
X168429524Y-95183390D02*
X168381905Y-95231009D01*
X168381905Y-95231009D02*
X168334286Y-95326247D01*
X182306666Y-106404819D02*
X182306666Y-107119104D01*
X182306666Y-107119104D02*
X182259047Y-107261961D01*
X182259047Y-107261961D02*
X182163809Y-107357200D01*
X182163809Y-107357200D02*
X182020952Y-107404819D01*
X182020952Y-107404819D02*
X181925714Y-107404819D01*
X182687619Y-106404819D02*
X183306666Y-106404819D01*
X183306666Y-106404819D02*
X182973333Y-106785771D01*
X182973333Y-106785771D02*
X183116190Y-106785771D01*
X183116190Y-106785771D02*
X183211428Y-106833390D01*
X183211428Y-106833390D02*
X183259047Y-106881009D01*
X183259047Y-106881009D02*
X183306666Y-106976247D01*
X183306666Y-106976247D02*
X183306666Y-107214342D01*
X183306666Y-107214342D02*
X183259047Y-107309580D01*
X183259047Y-107309580D02*
X183211428Y-107357200D01*
X183211428Y-107357200D02*
X183116190Y-107404819D01*
X183116190Y-107404819D02*
X182830476Y-107404819D01*
X182830476Y-107404819D02*
X182735238Y-107357200D01*
X182735238Y-107357200D02*
X182687619Y-107309580D01*
X156333333Y-117954819D02*
X156000000Y-117478628D01*
X155761905Y-117954819D02*
X155761905Y-116954819D01*
X155761905Y-116954819D02*
X156142857Y-116954819D01*
X156142857Y-116954819D02*
X156238095Y-117002438D01*
X156238095Y-117002438D02*
X156285714Y-117050057D01*
X156285714Y-117050057D02*
X156333333Y-117145295D01*
X156333333Y-117145295D02*
X156333333Y-117288152D01*
X156333333Y-117288152D02*
X156285714Y-117383390D01*
X156285714Y-117383390D02*
X156238095Y-117431009D01*
X156238095Y-117431009D02*
X156142857Y-117478628D01*
X156142857Y-117478628D02*
X155761905Y-117478628D01*
X157190476Y-116954819D02*
X157000000Y-116954819D01*
X157000000Y-116954819D02*
X156904762Y-117002438D01*
X156904762Y-117002438D02*
X156857143Y-117050057D01*
X156857143Y-117050057D02*
X156761905Y-117192914D01*
X156761905Y-117192914D02*
X156714286Y-117383390D01*
X156714286Y-117383390D02*
X156714286Y-117764342D01*
X156714286Y-117764342D02*
X156761905Y-117859580D01*
X156761905Y-117859580D02*
X156809524Y-117907200D01*
X156809524Y-117907200D02*
X156904762Y-117954819D01*
X156904762Y-117954819D02*
X157095238Y-117954819D01*
X157095238Y-117954819D02*
X157190476Y-117907200D01*
X157190476Y-117907200D02*
X157238095Y-117859580D01*
X157238095Y-117859580D02*
X157285714Y-117764342D01*
X157285714Y-117764342D02*
X157285714Y-117526247D01*
X157285714Y-117526247D02*
X157238095Y-117431009D01*
X157238095Y-117431009D02*
X157190476Y-117383390D01*
X157190476Y-117383390D02*
X157095238Y-117335771D01*
X157095238Y-117335771D02*
X156904762Y-117335771D01*
X156904762Y-117335771D02*
X156809524Y-117383390D01*
X156809524Y-117383390D02*
X156761905Y-117431009D01*
X156761905Y-117431009D02*
X156714286Y-117526247D01*
%TO.C,R3*%
D11*
X148762742Y-105977500D02*
X149237258Y-105977500D01*
X148762742Y-107022500D02*
X149237258Y-107022500D01*
%TO.C,U4*%
D12*
X164700000Y-116700000D02*
X165700000Y-116700000D01*
X164700000Y-117640000D02*
X164700000Y-116700000D01*
X164700000Y-117700000D02*
X164700000Y-117640000D01*
X164760000Y-117700000D02*
X164700000Y-117700000D01*
X165700000Y-116700000D02*
X165700000Y-117700000D01*
X165700000Y-117700000D02*
X164760000Y-117700000D01*
D13*
X164830000Y-117600000D02*
G75*
G02*
X164770000Y-117600000I-30000J0D01*
G01*
X164770000Y-117600000D02*
G75*
G02*
X164830000Y-117600000I30000J0D01*
G01*
D10*
X165080000Y-117900000D02*
G75*
G02*
X164920000Y-117900000I-80000J0D01*
G01*
X164920000Y-117900000D02*
G75*
G02*
X165080000Y-117900000I80000J0D01*
G01*
%TO.C,R4*%
D11*
X148762742Y-108487500D02*
X149237258Y-108487500D01*
X148762742Y-109532500D02*
X149237258Y-109532500D01*
%TO.C,C11*%
X170801248Y-100960000D02*
X171323752Y-100960000D01*
X170801248Y-102430000D02*
X171323752Y-102430000D01*
%TO.C,R9*%
X152772742Y-105977500D02*
X153247258Y-105977500D01*
X152772742Y-107022500D02*
X153247258Y-107022500D01*
%TO.C,D1*%
X173140000Y-118500000D02*
X173140000Y-120500000D01*
X173140000Y-118500000D02*
X177150000Y-118500000D01*
X173140000Y-120500000D02*
X177150000Y-120500000D01*
%TO.C,C3*%
X157524420Y-105990000D02*
X157805580Y-105990000D01*
X157524420Y-107010000D02*
X157805580Y-107010000D01*
%TO.C,R7*%
X165447742Y-105977500D02*
X165922258Y-105977500D01*
X165447742Y-107022500D02*
X165922258Y-107022500D01*
%TO.C,R10*%
X152772742Y-108487500D02*
X153247258Y-108487500D01*
X152772742Y-109532500D02*
X153247258Y-109532500D01*
%TO.C,C1*%
X170938748Y-89745000D02*
X171461252Y-89745000D01*
X170938748Y-91215000D02*
X171461252Y-91215000D01*
%TO.C,C8*%
X149674420Y-112990000D02*
X149955580Y-112990000D01*
X149674420Y-114010000D02*
X149955580Y-114010000D01*
%TO.C,J4*%
X129590000Y-89010000D02*
X129590000Y-89930000D01*
X129590000Y-89930000D02*
X131190000Y-89930000D01*
X129590000Y-94210000D02*
X129590000Y-95130000D01*
X129590000Y-95130000D02*
X137410000Y-95130000D01*
X131190000Y-89010000D02*
X131190000Y-89930000D01*
X131190000Y-89930000D02*
X131190000Y-90210000D01*
X131190000Y-93930000D02*
X129975000Y-93930000D01*
X131190000Y-93930000D02*
X131190000Y-94210000D01*
X131190000Y-94210000D02*
X129590000Y-94210000D01*
X131190000Y-95130000D02*
X131190000Y-94210000D01*
X133050000Y-91570000D02*
X137410000Y-91570000D01*
X133050000Y-92570000D02*
X133050000Y-91570000D01*
X135150000Y-93370000D02*
X137410000Y-93370000D01*
X135150000Y-93870000D02*
X137410000Y-93870000D01*
X137410000Y-89010000D02*
X129590000Y-89010000D01*
X137410000Y-92570000D02*
X133050000Y-92570000D01*
X137410000Y-95130000D02*
X137410000Y-89010000D01*
X133550000Y-89770000D02*
X135150000Y-89770000D01*
X135150000Y-90770000D01*
X133550000Y-90770000D01*
X133550000Y-89770000D01*
X133550000Y-93370000D02*
X135150000Y-93370000D01*
X135150000Y-94370000D01*
X133550000Y-94370000D01*
X133550000Y-93370000D01*
%TO.C,Q1*%
X180272500Y-89660000D02*
X181792500Y-89660000D01*
X180272500Y-89710000D02*
X180272500Y-89660000D01*
X180272500Y-91610000D02*
X180272500Y-90830000D01*
X180272500Y-92780000D02*
X180272500Y-92730000D01*
X181792500Y-89660000D02*
X181792500Y-90660000D01*
X181792500Y-91780000D02*
X181792500Y-92780000D01*
X181792500Y-92780000D02*
X180272500Y-92780000D01*
X179732500Y-90840000D02*
X179972500Y-91170000D01*
X179492500Y-91170000D01*
X179732500Y-90840000D01*
G36*
X179972500Y-91170000D02*
G01*
X179492500Y-91170000D01*
X179732500Y-90840000D01*
X179972500Y-91170000D01*
G37*
%TO.C,R2*%
X161437742Y-108487500D02*
X161912258Y-108487500D01*
X161437742Y-109532500D02*
X161912258Y-109532500D01*
%TO.C,R1*%
X161437742Y-105977500D02*
X161912258Y-105977500D01*
X161437742Y-107022500D02*
X161912258Y-107022500D01*
%TO.C,C9*%
X149674420Y-115500000D02*
X149955580Y-115500000D01*
X149674420Y-116520000D02*
X149955580Y-116520000D01*
%TO.C,R8*%
X165447742Y-108487500D02*
X165922258Y-108487500D01*
X165447742Y-109532500D02*
X165922258Y-109532500D01*
%TO.C,U7*%
X175090000Y-99065000D02*
X176910000Y-99065000D01*
X175090000Y-99115000D02*
X175090000Y-99065000D01*
X175090000Y-102185000D02*
X175090000Y-102135000D01*
X176910000Y-99065000D02*
X176910000Y-99115000D01*
X176910000Y-100235000D02*
X176910000Y-101015000D01*
X176910000Y-102135000D02*
X176910000Y-102185000D01*
X176910000Y-102185000D02*
X175090000Y-102185000D01*
X174550000Y-99115000D02*
X174310000Y-98785000D01*
X174790000Y-98785000D01*
X174550000Y-99115000D01*
G36*
X174550000Y-99115000D02*
G01*
X174310000Y-98785000D01*
X174790000Y-98785000D01*
X174550000Y-99115000D01*
G37*
%TO.C,U2*%
X146030000Y-81390000D02*
X146030000Y-87200000D01*
X146030000Y-81390000D02*
X164250000Y-81390000D01*
X146030000Y-101310000D02*
X146030000Y-101610000D01*
X146030000Y-101610000D02*
X164250000Y-101610000D01*
X164250000Y-81390000D02*
X164250000Y-87890000D01*
X164250000Y-101310000D02*
X164250000Y-101610000D01*
X146040000Y-87900000D02*
X145540000Y-87900000D01*
X146040000Y-87400000D01*
X146040000Y-87900000D01*
G36*
X146040000Y-87900000D02*
G01*
X145540000Y-87900000D01*
X146040000Y-87400000D01*
X146040000Y-87900000D01*
G37*
%TO.C,C2*%
X170938748Y-92755000D02*
X171461252Y-92755000D01*
X170938748Y-94225000D02*
X171461252Y-94225000D01*
%TO.C,U6*%
X158394432Y-113815000D02*
X160760000Y-113815000D01*
X160760000Y-116185000D02*
X158240000Y-116185000D01*
X158100000Y-113810000D02*
X157960000Y-113620000D01*
X158240000Y-113620000D01*
X158100000Y-113810000D01*
G36*
X158100000Y-113810000D02*
G01*
X157960000Y-113620000D01*
X158240000Y-113620000D01*
X158100000Y-113810000D01*
G37*
%TO.C,J2*%
X129700000Y-99910000D02*
X129700000Y-100830000D01*
X129700000Y-100830000D02*
X131300000Y-100830000D01*
X129700000Y-105110000D02*
X129700000Y-106030000D01*
X129700000Y-106030000D02*
X137520000Y-106030000D01*
X131300000Y-99910000D02*
X131300000Y-100830000D01*
X131300000Y-100830000D02*
X131300000Y-101110000D01*
X131300000Y-104830000D02*
X130085000Y-104830000D01*
X131300000Y-104830000D02*
X131300000Y-105110000D01*
X131300000Y-105110000D02*
X129700000Y-105110000D01*
X131300000Y-106030000D02*
X131300000Y-105110000D01*
X133160000Y-102470000D02*
X137520000Y-102470000D01*
X133160000Y-103470000D02*
X133160000Y-102470000D01*
X135260000Y-104270000D02*
X137520000Y-104270000D01*
X135260000Y-104770000D02*
X137520000Y-104770000D01*
X137520000Y-99910000D02*
X129700000Y-99910000D01*
X137520000Y-103470000D02*
X133160000Y-103470000D01*
X137520000Y-106030000D02*
X137520000Y-99910000D01*
X133660000Y-100670000D02*
X135260000Y-100670000D01*
X135260000Y-101670000D01*
X133660000Y-101670000D01*
X133660000Y-100670000D01*
X133660000Y-104270000D02*
X135260000Y-104270000D01*
X135260000Y-105270000D01*
X133660000Y-105270000D01*
X133660000Y-104270000D01*
%TO.C,C7*%
X144849420Y-108500000D02*
X145130580Y-108500000D01*
X144849420Y-109520000D02*
X145130580Y-109520000D01*
%TO.C,C5*%
X144849420Y-105990000D02*
X145130580Y-105990000D01*
X144849420Y-107010000D02*
X145130580Y-107010000D01*
%TO.C,U5*%
X175090000Y-94440000D02*
X176910000Y-94440000D01*
X175090000Y-94490000D02*
X175090000Y-94440000D01*
X175090000Y-97560000D02*
X175090000Y-97510000D01*
X176910000Y-94440000D02*
X176910000Y-94490000D01*
X176910000Y-95610000D02*
X176910000Y-96390000D01*
X176910000Y-97510000D02*
X176910000Y-97560000D01*
X176910000Y-97560000D02*
X175090000Y-97560000D01*
X174550000Y-94490000D02*
X174310000Y-94160000D01*
X174790000Y-94160000D01*
X174550000Y-94490000D01*
G36*
X174550000Y-94490000D02*
G01*
X174310000Y-94160000D01*
X174790000Y-94160000D01*
X174550000Y-94490000D01*
G37*
%TO.C,Q2*%
X180270000Y-94090000D02*
X181790000Y-94090000D01*
X180270000Y-94140000D02*
X180270000Y-94090000D01*
X180270000Y-96040000D02*
X180270000Y-95260000D01*
X180270000Y-97210000D02*
X180270000Y-97160000D01*
X181790000Y-94090000D02*
X181790000Y-95090000D01*
X181790000Y-96210000D02*
X181790000Y-97210000D01*
X181790000Y-97210000D02*
X180270000Y-97210000D01*
X179730000Y-95270000D02*
X179970000Y-95600000D01*
X179490000Y-95600000D01*
X179730000Y-95270000D01*
G36*
X179970000Y-95600000D02*
G01*
X179490000Y-95600000D01*
X179730000Y-95270000D01*
X179970000Y-95600000D01*
G37*
%TO.C,U3*%
X129400000Y-78065000D02*
X129400000Y-77840000D01*
X129400000Y-81900000D02*
X129400000Y-81375000D01*
X129400000Y-81900000D02*
X129925000Y-81900000D01*
X129925000Y-77600000D02*
X129700000Y-77600000D01*
X133700000Y-77600000D02*
X133175000Y-77600000D01*
X133700000Y-77600000D02*
X133700000Y-78125000D01*
X133700000Y-81900000D02*
X133175000Y-81900000D01*
X133700000Y-81900000D02*
X133700000Y-81375000D01*
X129400000Y-77600000D02*
X129160000Y-77270000D01*
X129640000Y-77270000D01*
X129400000Y-77600000D01*
G36*
X129400000Y-77600000D02*
G01*
X129160000Y-77270000D01*
X129640000Y-77270000D01*
X129400000Y-77600000D01*
G37*
%TO.C,SW1*%
X174550000Y-78600000D02*
X174550000Y-79400000D01*
X176400000Y-77500000D02*
X178100000Y-77500000D01*
X179400000Y-77500000D02*
X179600000Y-77500000D01*
X181450000Y-78600000D02*
X181450000Y-79400000D01*
%TO.C,J1*%
X130910000Y-116700000D02*
X130910000Y-118700000D01*
X130910000Y-120600000D02*
X130910000Y-122500000D01*
X130910000Y-122500000D02*
X140310000Y-122500000D01*
X140310000Y-116700000D02*
X140310000Y-118700000D01*
X140310000Y-120600000D02*
X140310000Y-122500000D01*
%TO.C,R5*%
X153587742Y-112977500D02*
X154062258Y-112977500D01*
X153587742Y-114022500D02*
X154062258Y-114022500D01*
%TO.C,D2*%
X135940000Y-107500000D02*
X135940000Y-109500000D01*
X135940000Y-107500000D02*
X139950000Y-107500000D01*
X135940000Y-109500000D02*
X139950000Y-109500000D01*
%TO.C,C10*%
X170938748Y-98775000D02*
X171461252Y-98775000D01*
X170938748Y-100245000D02*
X171461252Y-100245000D01*
%TO.C,C4*%
X157524420Y-108500000D02*
X157805580Y-108500000D01*
X157524420Y-109520000D02*
X157805580Y-109520000D01*
%TO.C,U1*%
X175090000Y-89815000D02*
X176910000Y-89815000D01*
X175090000Y-89865000D02*
X175090000Y-89815000D01*
X175090000Y-92935000D02*
X175090000Y-92885000D01*
X176910000Y-89815000D02*
X176910000Y-89865000D01*
X176910000Y-90985000D02*
X176910000Y-91765000D01*
X176910000Y-92885000D02*
X176910000Y-92935000D01*
X176910000Y-92935000D02*
X175090000Y-92935000D01*
X174550000Y-89865000D02*
X174310000Y-89535000D01*
X174790000Y-89535000D01*
X174550000Y-89865000D01*
G36*
X174550000Y-89865000D02*
G01*
X174310000Y-89535000D01*
X174790000Y-89535000D01*
X174550000Y-89865000D01*
G37*
%TO.C,C6*%
X170938748Y-95765000D02*
X171461252Y-95765000D01*
X170938748Y-97235000D02*
X171461252Y-97235000D01*
%TO.C,J3*%
X175450000Y-107980000D02*
X175450000Y-114100000D01*
X175450000Y-110540000D02*
X179810000Y-110540000D01*
X175450000Y-114100000D02*
X183270000Y-114100000D01*
X177710000Y-109240000D02*
X175450000Y-109240000D01*
X177710000Y-109740000D02*
X175450000Y-109740000D01*
X179810000Y-110540000D02*
X179810000Y-111540000D01*
X179810000Y-111540000D02*
X175450000Y-111540000D01*
X181670000Y-107980000D02*
X181670000Y-108900000D01*
X181670000Y-108900000D02*
X183270000Y-108900000D01*
X181670000Y-109180000D02*
X181670000Y-108900000D01*
X181670000Y-109180000D02*
X182885000Y-109180000D01*
X181670000Y-113180000D02*
X181670000Y-112900000D01*
X181670000Y-114100000D02*
X181670000Y-113180000D01*
X183270000Y-107980000D02*
X175450000Y-107980000D01*
X183270000Y-108900000D02*
X183270000Y-107980000D01*
X183270000Y-113180000D02*
X181670000Y-113180000D01*
X183270000Y-114100000D02*
X183270000Y-113180000D01*
X177710000Y-108740000D02*
X179310000Y-108740000D01*
X179310000Y-109740000D01*
X177710000Y-109740000D01*
X177710000Y-108740000D01*
X177710000Y-112340000D02*
X179310000Y-112340000D01*
X179310000Y-113340000D01*
X177710000Y-113340000D01*
X177710000Y-112340000D01*
%TO.C,R6*%
X153587742Y-115487500D02*
X154062258Y-115487500D01*
X153587742Y-116532500D02*
X154062258Y-116532500D01*
%TD*%
M02*
