M48
; DRILL file KiCad 10.0.4 date 2026-08-02T19:40:55
; FORMAT={-:-/ absolute / metric / decimal}
; #@! TF.CreationDate,2026-08-02T19:40:55-05:00
; #@! TF.GenerationSoftware,Kicad,Pcbnew,10.0.4
; #@! TF.FileFunction,MixedPlating,1,2
FMAT,2
METRIC
; #@! TA.AperFunction,Plated,PTH,ComponentDrill
T1C0.200
; #@! TA.AperFunction,Plated,PTH,ViaDrill
T2C0.300
; #@! TA.AperFunction,Plated,PTH,ComponentDrill
T3C0.600
; #@! TA.AperFunction,Plated,PTH,ComponentDrill
T4C0.750
; #@! TA.AperFunction,NonPlated,NPTH,ComponentDrill
T5C0.650
; #@! TA.AperFunction,NonPlated,NPTH,ComponentDrill
T6C0.850
%
G90
G05
T1
X155.0Y-94.25
X155.0Y-95.35
X155.55Y-93.7
X155.55Y-94.8
X155.55Y-95.9
X156.1Y-94.25
X156.1Y-95.35
X156.65Y-93.7
X156.65Y-94.8
X156.65Y-95.9
X157.2Y-94.25
X157.2Y-95.35
T2
X131.0Y-76.5
X131.0Y-83.5
X131.995Y-83.505
X133.0Y-83.0
X133.449Y-115.542
X133.5Y-86.0
X133.53Y-82.47
X133.7Y-103.99
X134.33Y-116.74
X134.5Y-82.0
X134.78Y-98.22
X135.0Y-77.75
X135.335Y-112.91
X136.37Y-112.9
X136.63Y-116.74
X137.0Y-84.5
X137.0Y-96.0
X137.278Y-83.222
X137.38Y-116.23
X137.5Y-93.5
X137.78Y-115.534
X139.0Y-87.5
X140.0Y-110.0
X140.0Y-111.5
X140.5Y-110.7
X141.01Y-121.34
X142.0Y-112.5
X142.5Y-109.5
X142.5Y-111.5
X143.0Y-118.0
X144.05Y-114.0
X144.5Y-112.5
X144.5Y-120.5
X145.5Y-105.0
X145.55Y-98.976
X147.04Y-108.96
X147.625Y-99.403
X148.5Y-98.0
X148.5Y-121.5
X148.725Y-100.0
X149.5Y-102.0
X150.0Y-107.5
X150.109Y-103.891
X150.938Y-107.938
X151.7Y-112.5
X152.0Y-110.5
X153.0Y-105.5
X153.5Y-117.5
X153.95Y-115.292
X153.95Y-116.9
X154.535Y-104.947
X154.755Y-110.245
X155.0Y-119.5
X155.15Y-116.0
X155.5Y-104.0
X155.5Y-106.5
X155.5Y-109.0
X156.416Y-104.841
X156.5Y-108.0
X156.55Y-116.0
X156.55Y-116.9
X156.621Y-103.621
X157.0Y-117.5
X157.0Y-119.5
X157.512Y-116.012
X159.5Y-108.0
X159.5Y-114.5
X160.932Y-107.938
X161.0Y-113.5
X161.5Y-110.0
X162.0Y-116.5
X162.776Y-117.124
X163.0Y-115.0
X163.5Y-118.5
X164.0Y-119.5
X164.5Y-113.5
X165.45Y-115.228
X165.5Y-112.5
X165.74Y-117.855
X165.879Y-116.621
X166.0Y-120.0
X166.5Y-113.5
X166.639Y-114.861
X167.0Y-116.5
X168.0Y-100.0
X168.0Y-103.0
X168.0Y-111.0
X170.25Y-95.0
X170.885Y-97.885
X171.0Y-88.5
X171.0Y-100.5
X171.0Y-103.5
X171.45Y-95.0
X171.971Y-103.971
X172.85Y-95.0
X173.0Y-105.0
X173.5Y-88.5
X173.5Y-95.0
X173.5Y-96.7
X174.0Y-92.8
X175.474Y-92.117
X175.967Y-95.3
X176.0Y-88.85
X176.0Y-96.95
X177.5Y-93.5
X178.3Y-101.5
X179.0Y-98.5
X180.224Y-95.741
X181.349Y-96.798
X182.0Y-93.5
X184.0Y-93.5
T4
X131.05Y-91.07
X131.05Y-93.07
X131.16Y-101.97
X131.16Y-103.97
X181.81Y-110.04
X181.81Y-112.04
T5
X132.72Y-116.0
X138.5Y-116.0
T6
X176.5Y-79.0
X179.5Y-79.0
T3
X131.29Y-114.92G85X131.29Y-116.02
G05
X131.29Y-119.35G85X131.29Y-119.95
G05
X139.93Y-114.92G85X139.93Y-116.02
G05
X139.93Y-119.35G85X139.93Y-119.95
G05
M30
