%TF.GenerationSoftware,KiCad,Pcbnew,10.0.4*%
%TF.CreationDate,2026-08-02T19:40:54-05:00*%
%TF.ProjectId,pcb_design,7063625f-6465-4736-9967-6e2e6b696361,rev?*%
%TF.SameCoordinates,Original*%
%TF.FileFunction,Paste,Top*%
%TF.FilePolarity,Positive*%
%FSLAX46Y46*%
G04 Gerber Fmt 4.6, Leading zero omitted, Abs format (unit mm)*
G04 Created by KiCad (PCBNEW 10.0.4) date 2026-08-02 19:40:54*
%MOMM*%
%LPD*%
G01*
G04 APERTURE LIST*
G04 Aperture macros list*
%AMRoundRect*
0 Rectangle with rounded corners*
0 $1 Rounding radius*
0 $2 $3 $4 $5 $6 $7 $8 $9 X,Y pos of 4 corners*
0 Add a 4 corners polygon primitive as box body*
4,1,4,$2,$3,$4,$5,$6,$7,$8,$9,$2,$3,0*
0 Add four circle primitives for the rounded corners*
1,1,$1+$1,$2,$3*
1,1,$1+$1,$4,$5*
1,1,$1+$1,$6,$7*
1,1,$1+$1,$8,$9*
0 Add four rect primitives between the rounded corners*
20,1,$1+$1,$2,$3,$4,$5,0*
20,1,$1+$1,$4,$5,$6,$7,0*
20,1,$1+$1,$6,$7,$8,$9,0*
20,1,$1+$1,$8,$9,$2,$3,0*%
G04 Aperture macros list end*
%ADD10RoundRect,0.200000X-0.200000X-0.275000X0.200000X-0.275000X0.200000X0.275000X-0.200000X0.275000X0*%
%ADD11C,0.200000*%
%ADD12RoundRect,0.250000X-0.250000X-0.475000X0.250000X-0.475000X0.250000X0.475000X-0.250000X0.475000X0*%
%ADD13RoundRect,0.225000X-0.225000X-0.375000X0.225000X-0.375000X0.225000X0.375000X-0.225000X0.375000X0*%
%ADD14RoundRect,0.225000X-0.225000X-0.250000X0.225000X-0.250000X0.225000X0.250000X-0.225000X0.250000X0*%
%ADD15RoundRect,0.150000X-0.587500X-0.150000X0.587500X-0.150000X0.587500X0.150000X-0.587500X0.150000X0*%
%ADD16RoundRect,0.150000X-0.512500X-0.150000X0.512500X-0.150000X0.512500X0.150000X-0.512500X0.150000X0*%
%ADD17R,0.700000X0.700000*%
%ADD18R,1.500000X0.900000*%
%ADD19RoundRect,0.087500X-0.537500X-0.087500X0.537500X-0.087500X0.537500X0.087500X-0.537500X0.087500X0*%
%ADD20RoundRect,0.075000X-0.350000X-0.075000X0.350000X-0.075000X0.350000X0.075000X-0.350000X0.075000X0*%
%ADD21RoundRect,0.075000X0.075000X-0.350000X0.075000X0.350000X-0.075000X0.350000X-0.075000X-0.350000X0*%
%ADD22RoundRect,0.150000X-0.150000X-0.500000X0.150000X-0.500000X0.150000X0.500000X-0.150000X0.500000X0*%
%ADD23RoundRect,0.175000X-0.350000X-0.175000X0.350000X-0.175000X0.350000X0.175000X-0.350000X0.175000X0*%
%ADD24RoundRect,0.150000X-0.150000X-0.575000X0.150000X-0.575000X0.150000X0.575000X-0.150000X0.575000X0*%
%ADD25RoundRect,0.075000X-0.075000X-0.650000X0.075000X-0.650000X0.075000X0.650000X-0.075000X0.650000X0*%
G04 APERTURE END LIST*
D10*
%TO.C,R3*%
X148175000Y-106500000D03*
X149825000Y-106500000D03*
%TD*%
D11*
%TO.C,U4*%
X165000000Y-117400000D03*
X165000000Y-117000000D03*
X165400000Y-117400000D03*
X165400000Y-117000000D03*
%TD*%
D10*
%TO.C,R4*%
X148175000Y-109010000D03*
X149825000Y-109010000D03*
%TD*%
D12*
%TO.C,C11*%
X170112500Y-101695000D03*
X172012500Y-101695000D03*
%TD*%
D10*
%TO.C,R9*%
X152185000Y-106500000D03*
X153835000Y-106500000D03*
%TD*%
D13*
%TO.C,D1*%
X173850000Y-119500000D03*
X177150000Y-119500000D03*
%TD*%
D14*
%TO.C,C3*%
X156890000Y-106500000D03*
X158440000Y-106500000D03*
%TD*%
D10*
%TO.C,R7*%
X164860000Y-106500000D03*
X166510000Y-106500000D03*
%TD*%
%TO.C,R10*%
X152185000Y-109010000D03*
X153835000Y-109010000D03*
%TD*%
D12*
%TO.C,C1*%
X170250000Y-90480000D03*
X172150000Y-90480000D03*
%TD*%
D14*
%TO.C,C8*%
X149040000Y-113500000D03*
X150590000Y-113500000D03*
%TD*%
D15*
%TO.C,Q1*%
X180095000Y-90270000D03*
X180095000Y-92170000D03*
X181970000Y-91220000D03*
%TD*%
D10*
%TO.C,R2*%
X160850000Y-109010000D03*
X162500000Y-109010000D03*
%TD*%
%TO.C,R1*%
X160850000Y-106500000D03*
X162500000Y-106500000D03*
%TD*%
D14*
%TO.C,C9*%
X149040000Y-116010000D03*
X150590000Y-116010000D03*
%TD*%
D10*
%TO.C,R8*%
X164860000Y-109010000D03*
X166510000Y-109010000D03*
%TD*%
D16*
%TO.C,U7*%
X174862500Y-99675000D03*
X174862500Y-100625000D03*
X174862500Y-101575000D03*
X177137500Y-101575000D03*
X177137500Y-99675000D03*
%TD*%
D17*
%TO.C,U2*%
X155000000Y-93700000D03*
X155000000Y-94800000D03*
X155000000Y-95900000D03*
X156100000Y-93700000D03*
X156100000Y-94800000D03*
X156100000Y-95900000D03*
X157200000Y-93700000D03*
X157200000Y-94800000D03*
X157200000Y-95900000D03*
D18*
X146390000Y-88600000D03*
X146390000Y-90100000D03*
X146390000Y-91600000D03*
X146390000Y-93100000D03*
X146390000Y-94600000D03*
X146390000Y-96100000D03*
X146390000Y-97600000D03*
X146390000Y-99100000D03*
X146390000Y-100600000D03*
X163890000Y-100600000D03*
X163890000Y-99100000D03*
X163890000Y-97600000D03*
X163890000Y-96100000D03*
X163890000Y-94600000D03*
X163890000Y-93100000D03*
X163890000Y-91600000D03*
X163890000Y-90100000D03*
X163890000Y-88600000D03*
%TD*%
D12*
%TO.C,C2*%
X170250000Y-93490000D03*
X172150000Y-93490000D03*
%TD*%
D19*
%TO.C,U6*%
X158100000Y-114250000D03*
X158100000Y-114750000D03*
X158100000Y-115250000D03*
X158100000Y-115750000D03*
X160900000Y-115750000D03*
X160900000Y-115250000D03*
X160900000Y-114750000D03*
X160900000Y-114250000D03*
%TD*%
D14*
%TO.C,C7*%
X144215000Y-109010000D03*
X145765000Y-109010000D03*
%TD*%
%TO.C,C5*%
X144215000Y-106500000D03*
X145765000Y-106500000D03*
%TD*%
D16*
%TO.C,U5*%
X174862500Y-95050000D03*
X174862500Y-96000000D03*
X174862500Y-96950000D03*
X177137500Y-96950000D03*
X177137500Y-95050000D03*
%TD*%
D15*
%TO.C,Q2*%
X180092500Y-94700000D03*
X180092500Y-96600000D03*
X181967500Y-95650000D03*
%TD*%
D20*
%TO.C,U3*%
X129600000Y-78500000D03*
X129600000Y-79000000D03*
X129600000Y-79500000D03*
X129600000Y-80000000D03*
X129600000Y-80500000D03*
X129600000Y-81000000D03*
D21*
X130300000Y-81700000D03*
X130800000Y-81700000D03*
X131300000Y-81700000D03*
X131800000Y-81700000D03*
X132300000Y-81700000D03*
X132800000Y-81700000D03*
D20*
X133500000Y-81000000D03*
X133500000Y-80500000D03*
X133500000Y-80000000D03*
X133500000Y-79500000D03*
X133500000Y-79000000D03*
X133500000Y-78500000D03*
D21*
X132800000Y-77800000D03*
X132300000Y-77800000D03*
X131800000Y-77800000D03*
X131300000Y-77800000D03*
X130800000Y-77800000D03*
X130300000Y-77800000D03*
%TD*%
D22*
%TO.C,SW1*%
X175750000Y-77050000D03*
X178750000Y-77050000D03*
X180250000Y-77050000D03*
D23*
X174325000Y-77900000D03*
X174325000Y-80100000D03*
X181675000Y-77900000D03*
X181675000Y-80100000D03*
%TD*%
D24*
%TO.C,J1*%
X132360000Y-114555000D03*
X133160000Y-114555000D03*
D25*
X134360000Y-114555000D03*
X135360000Y-114555000D03*
X135860000Y-114555000D03*
X136860000Y-114555000D03*
D24*
X138060000Y-114555000D03*
X138860000Y-114555000D03*
X138860000Y-114555000D03*
X138060000Y-114555000D03*
D25*
X137360000Y-114555000D03*
X136360000Y-114555000D03*
X134860000Y-114555000D03*
X133860000Y-114555000D03*
D24*
X133160000Y-114555000D03*
X132360000Y-114555000D03*
%TD*%
D10*
%TO.C,R5*%
X153000000Y-113500000D03*
X154650000Y-113500000D03*
%TD*%
D13*
%TO.C,D2*%
X136650000Y-108500000D03*
X139950000Y-108500000D03*
%TD*%
D12*
%TO.C,C10*%
X170250000Y-99510000D03*
X172150000Y-99510000D03*
%TD*%
D14*
%TO.C,C4*%
X156890000Y-109010000D03*
X158440000Y-109010000D03*
%TD*%
D16*
%TO.C,U1*%
X174862500Y-90425000D03*
X174862500Y-91375000D03*
X174862500Y-92325000D03*
X177137500Y-92325000D03*
X177137500Y-90425000D03*
%TD*%
D12*
%TO.C,C6*%
X170250000Y-96500000D03*
X172150000Y-96500000D03*
%TD*%
D10*
%TO.C,R6*%
X153000000Y-116010000D03*
X154650000Y-116010000D03*
%TD*%
M02*
